<?xml version="1.0" standalone="no"?>
<!DOCTYPE svg PUBLIC "-//W3C//DTD SVG 20010904//EN"
 "http://www.w3.org/TR/2001/REC-SVG-20010904/DTD/svg10.dtd">
<svg version="1.0" xmlns="http://www.w3.org/2000/svg"
 width="300.000000pt" height="162.000000pt" viewBox="0 0 300.000000 162.000000"
 preserveAspectRatio="xMidYMid meet">
<metadata>
Created by potrace 1.10, written by Peter Selinger 2001-2011
</metadata>
<g transform="translate(0.000000,162.000000) scale(0.100000,-0.100000)"
fill="#000000" stroke="none">
<path d="M2530 1261 c-26 -5 -34 -11 -32 -24 2 -10 42 -114 90 -233 l87 -215
35 6 c43 8 47 12 32 27 -9 9 -12 9 -12 -1 0 -8 -7 -11 -20 -8 -10 3 -21 0 -22
-5 -4 -12 -124 282 -122 300 1 6 -1 12 -5 12 -4 0 -18 25 -31 56 -19 47 -20
58 -9 65 27 17 43 3 71 -65 15 -38 30 -72 33 -75 3 -2 18 8 33 22 32 31 64 33
108 9 42 -23 88 -78 80 -98 -3 -8 -1 -12 4 -9 5 3 12 -7 15 -22 4 -15 10 -36
16 -45 18 -34 10 -87 -16 -113 -29 -30 -53 -31 -105 -5 -22 11 -40 17 -40 13
1 -14 70 -43 101 -43 18 0 39 9 54 25 64 63 -2 256 -107 311 -44 23 -93 18
-117 -12 l-20 -26 -14 34 c-7 18 -22 54 -32 81 -10 26 -18 46 -19 46 0 -1 -17
-4 -36 -8z"/>
<path d="M1945 1155 c-5 -2 -22 -6 -37 -9 l-26 -6 90 -222 c49 -123 92 -225
94 -228 5 -4 265 38 271 44 2 2 -4 19 -12 39 -18 43 -31 45 -135 23 -36 -8
-68 -11 -72 -8 -4 4 -38 86 -77 182 -73 178 -79 190 -96 185z m42 -85 c13 -36
28 -74 33 -85 6 -11 28 -63 49 -115 l39 -95 44 0 c23 0 45 3 49 7 3 4 27 9 55
10 45 3 49 1 48 -19 0 -12 3 -20 8 -17 4 3 8 0 8 -5 0 -6 -1 -11 -2 -11 -2 0
-55 -9 -118 -20 -63 -11 -118 -20 -121 -20 -12 0 -31 59 -23 71 4 7 3 10 -3 6
-13 -8 -36 50 -26 66 3 5 2 8 -3 4 -5 -3 -29 45 -53 106 -24 62 -50 125 -58
141 -11 24 -11 31 -1 38 31 20 51 3 75 -62z"/>
<path d="M1971 1064 c0 -11 3 -14 6 -6 3 7 2 16 -1 19 -3 4 -6 -2 -5 -13z"/>
<path d="M1972 985 c0 -16 2 -22 5 -12 2 9 2 23 0 30 -3 6 -5 -1 -5 -18z"/>
<path d="M2331 1094 c-44 -18 -60 -41 -61 -81 0 -31 2 -33 38 -33 29 0 39 5
47 23 14 31 58 35 79 6 15 -23 15 -24 -41 -54 -87 -46 -96 -99 -29 -173 44
-48 100 -51 143 -10 25 24 30 25 38 12 8 -12 19 -14 47 -9 l38 7 -19 27 c-10
14 -33 62 -51 106 -50 124 -68 154 -103 175 -38 23 -79 25 -126 4z m145 -39
c17 -18 42 -66 59 -111 16 -43 39 -97 53 -118 18 -29 20 -37 8 -33 -8 3 -18 2
-22 -4 -4 -6 -13 -4 -25 7 -18 16 -20 16 -40 -10 -16 -21 -29 -26 -63 -26 -52
0 -77 17 -101 70 -17 38 -18 45 -4 68 8 15 37 39 64 53 36 20 49 32 47 45 -8
47 -88 59 -107 17 -11 -26 -50 -31 -59 -7 -3 8 -2 12 4 9 6 -3 10 1 10 10 0 9
-4 13 -10 10 -16 -10 -12 0 10 25 21 24 77 39 120 32 14 -2 39 -19 56 -37z"/>
<path d="M2423 910 c-36 -22 -41 -44 -17 -78 17 -24 62 -30 82 -10 24 24 8
108 -21 108 -7 0 -27 -9 -44 -20z m62 -20 c14 -62 -24 -92 -67 -53 -26 24 -22
41 15 63 42 26 44 25 52 -10z"/>
<path d="M1470 1072 c-25 -12 -40 -30 -54 -65 -18 -42 -19 -54 -8 -103 34
-166 150 -293 267 -294 75 0 135 61 135 137 0 40 -10 49 -57 56 l-42 7 1 -40
c1 -50 -15 -70 -57 -70 -46 0 -92 41 -126 113 -57 121 -46 187 30 187 30 0 46
-7 69 -30 30 -30 31 -30 61 -12 17 9 31 22 31 28 0 16 -75 83 -106 94 -39 15
-106 12 -144 -8z m127 -9 c8 -10 12 -12 8 -5 -3 6 -1 12 5 12 6 0 13 -7 16
-15 4 -8 12 -15 18 -15 7 0 25 -14 42 -32 16 -17 23 -28 17 -24 -7 4 -13 3
-13 -2 0 -24 -34 -21 -58 5 -15 16 -34 27 -44 25 -11 -2 -26 2 -34 8 -10 9
-14 9 -14 1 0 -6 -7 -11 -15 -11 -28 0 -48 -47 -40 -93 4 -23 8 -54 9 -69 0
-14 3 -24 5 -22 2 2 11 -5 19 -17 8 -11 12 -23 9 -25 -3 -3 6 -17 19 -31 13
-14 21 -31 17 -37 -3 -6 -3 -8 2 -4 4 4 20 1 36 -7 32 -17 85 -20 94 -5 4 6
11 8 16 4 5 -3 9 -2 8 3 -1 4 0 17 1 28 2 17 3 17 11 -5 8 -23 8 -23 5 5 -3
17 -7 37 -11 46 -5 13 0 15 24 11 45 -6 56 -24 44 -75 -5 -25 -14 -41 -22 -39
-7 1 -9 -2 -6 -8 10 -16 -23 -38 -67 -45 -42 -7 -112 11 -102 26 3 6 0 9 -7 8
-24 -5 -59 21 -60 44 0 12 -3 16 -6 9 -15 -38 -110 159 -99 206 5 21 4 24 -4
12 -9 -12 -10 -5 -7 27 5 45 34 90 70 110 33 19 97 16 114 -4z"/>
<path d="M2672 1078 c-33 -33 15 -165 70 -194 58 -30 99 10 79 78 -7 21 -9 44
-5 50 4 6 3 8 -4 4 -6 -3 -13 2 -16 12 -17 52 -92 82 -124 50z m83 -14 c47
-47 75 -155 45 -174 -16 -10 -47 -4 -68 13 -38 30 -76 149 -55 170 12 13 62 7
78 -9z"/>
<path d="M1228 1033 c-10 -2 -18 -9 -18 -14 0 -14 170 -432 180 -442 4 -5 24
-5 45 -1 28 5 35 11 32 23 -3 9 -45 112 -93 229 -92 224 -89 220 -146 205z
m56 -30 c0 -12 3 -20 6 -18 10 6 43 -82 35 -95 -3 -5 -1 -18 5 -27 9 -15 10
-14 5 7 -3 14 6 0 21 -30 14 -30 27 -65 27 -77 1 -13 5 -23 8 -23 7 0 46 -92
51 -120 2 -8 7 -18 12 -21 4 -4 -6 -9 -24 -11 -30 -5 -33 -2 -57 51 -14 31
-26 66 -26 78 -1 11 -4 20 -7 18 -3 -2 -31 60 -62 138 -49 125 -54 143 -40
149 28 11 47 4 46 -19z"/>
<path d="M759 909 c-18 -26 -20 -34 -10 -57 10 -21 10 -28 -2 -37 -13 -9 -13
-15 0 -47 10 -25 19 -35 31 -32 13 4 26 -17 57 -97 49 -123 70 -149 123 -149
21 0 46 6 56 13 17 12 17 15 0 50 -13 28 -21 34 -30 26 -23 -19 -35 -5 -74 89
l-39 92 25 0 c28 0 28 0 9 46 -13 31 -18 35 -39 30 -21 -5 -26 0 -46 49 -12
30 -26 55 -30 55 -5 0 -19 -14 -31 -31z m62 -51 c14 -27 26 -38 43 -38 14 0
27 -9 34 -24 10 -22 8 -25 -10 -28 -15 -2 -22 -11 -22 -30 -1 -14 1 -25 5 -23
3 3 18 -27 33 -65 29 -74 47 -96 71 -86 10 3 20 -5 30 -23 13 -26 13 -30 -1
-35 -24 -9 -63 -7 -85 4 -24 13 -62 87 -55 106 3 8 2 13 -3 9 -5 -3 -20 23
-33 57 -18 47 -29 64 -45 66 -25 4 -41 51 -22 63 10 6 10 13 1 35 -11 22 -10
31 4 52 18 27 19 26 55 -40z"/>
<path d="M1034 871 c-12 -5 -31 -22 -44 -38 -43 -54 -16 -173 57 -248 58 -59
137 -77 192 -44 119 72 14 322 -140 335 -24 2 -54 0 -65 -5z m116 -23 c52 -27
112 -100 103 -125 -4 -10 -2 -14 5 -9 14 8 27 -73 17 -106 -14 -47 -45 -68
-97 -68 -59 0 -94 17 -136 64 -21 25 -29 42 -25 58 3 16 2 19 -5 10 -7 -11
-12 -6 -21 19 -15 45 -14 105 4 122 8 8 11 17 8 21 -8 7 56 35 82 36 12 0 41
-10 65 -22z"/>
<path d="M1055 787 c-14 -22 -18 -97 -5 -97 3 0 13 -15 23 -33 36 -67 115 -85
139 -32 8 18 7 36 -3 72 -7 26 -14 51 -14 55 0 15 -74 58 -99 58 -16 0 -31 -9
-41 -23z m93 -12 c16 -13 33 -21 37 -17 5 4 5 2 2 -4 -3 -6 1 -30 9 -54 20
-59 7 -90 -37 -90 -40 0 -83 44 -97 101 -21 82 24 116 86 64z"/>
<path d="M138 843 c-12 -3 -18 -14 -18 -31 0 -29 31 -456 34 -458 0 -1 19 1
41 5 l40 6 1 55 c1 60 1 60 95 74 46 7 46 7 84 -42 36 -48 38 -49 76 -42 22 4
42 9 44 12 2 2 -28 45 -68 95 -40 50 -115 145 -167 212 -98 125 -104 129 -162
114z m65 -20 c-2 -7 2 -12 8 -10 6 1 14 -4 17 -12 3 -9 0 -11 -9 -6 -8 5 -11
4 -6 -1 5 -5 13 -9 18 -9 14 0 89 -95 89 -113 0 -8 3 -12 6 -9 7 7 140 -155
152 -183 3 -8 14 -21 25 -29 15 -11 16 -15 6 -22 -30 -19 -56 -8 -89 36 -38
50 -49 53 -140 31 l-55 -13 3 -51 c2 -48 1 -52 -24 -58 -16 -4 -29 -2 -33 5
-4 6 -15 109 -25 228 -18 234 -18 236 34 231 14 -2 24 -9 23 -15z"/>
<path d="M204 663 c9 -114 7 -112 69 -101 61 11 64 13 49 31 -7 8 -8 18 -4 22
4 5 2 5 -4 2 -11 -7 -29 19 -25 36 1 5 -3 6 -8 3 -10 -6 -26 22 -22 39 2 5 0
7 -4 3 -4 -4 -18 5 -32 20 l-24 27 5 -82z m95 -84 c-8 -5 -29 -9 -46 -9 -28 0
-33 4 -33 23 0 12 -3 47 -7 77 l-6 55 53 -69 c41 -53 49 -70 39 -77z"/>
<path d="M624 794 c-8 -3 3 -42 32 -114 24 -61 44 -118 44 -128 0 -40 -45 -55
-72 -24 -9 9 -37 68 -63 130 -43 103 -49 112 -74 112 -55 0 -58 -12 -22 -97
70 -165 91 -201 127 -223 44 -28 94 -21 123 17 17 21 22 23 27 9 3 -9 17 -16
29 -16 57 0 56 2 -14 175 -65 162 -66 165 -96 164 -16 0 -35 -3 -41 -5z m120
-146 c32 -79 60 -148 63 -155 2 -6 -6 -14 -18 -18 -16 -6 -26 -2 -39 15 -15
20 -18 20 -23 6 -4 -10 -11 -14 -17 -11 -5 3 -7 0 -4 -8 7 -19 -47 -41 -78
-32 -50 16 -66 40 -134 203 l-42 102 25 6 c13 4 28 3 32 -2 5 -5 27 -56 50
-114 53 -132 92 -168 135 -124 24 23 20 51 -24 159 -22 54 -40 102 -40 107 0
4 13 8 28 8 27 0 31 -6 86 -142z"/>
</g>
</svg>
